<svg xmlns="http://www.w3.org/2000/svg" viewBox="0 0 256 256" focusable="false" color="var(--token-e6c9b722-ba6c-421a-bd80-1a0063a015d9, rgb(101, 249, 250))" style="user-select: none; width: 100%; height: 100%; display: inline-block; fill: var(--token-e6c9b722-ba6c-421a-bd80-1a0063a015d9, rgb(101, 249, 250)); color: var(--token-e6c9b722-ba6c-421a-bd80-1a0063a015d9, rgb(101, 249, 250)); flex-shrink: 0;"><g color="var(--token-e6c9b722-ba6c-421a-bd80-1a0063a015d9, rgb(101, 249, 250))" weight="thin"><path d="M224,52H32a4,4,0,0,0-4,4V192a12,12,0,0,0,12,12H216a12,12,0,0,0,12-12V56A4,4,0,0,0,224,52Zm-96,86.57L42.28,60H213.72ZM104.63,128,36,190.91V65.09Zm5.92,5.43L125.3,147a4,4,0,0,0,5.4,0l14.75-13.52L213.72,196H42.28ZM151.37,128,220,65.09V190.91Z"></path></g></svg>